<?xml version="1.0" encoding="utf-8"?>
<!-- Generator: Adobe Illustrator 16.0.0, SVG Export Plug-In . SVG Version: 6.00 Build 0)  -->
<!DOCTYPE svg PUBLIC "-//W3C//DTD SVG 1.1//EN" "http://www.w3.org/Graphics/SVG/1.1/DTD/svg11.dtd">
<svg version="1.1" id="Layer_1" xmlns="http://www.w3.org/2000/svg" xmlns:xlink="http://www.w3.org/1999/xlink" x="0px" y="0px"
	 width="841.89px" height="595.28px" viewBox="0 0 841.89 595.28" enable-background="new 0 0 841.89 595.28" xml:space="preserve">
<rect x="0.941" y="230.64" fill="none" width="363.968" height="134.001"/>
<text transform="matrix(1 0 0 1 88.5596 252.7329)"><tspan x="0" y="0" fill="#808080" font-family="'ArialMT'" font-size="17">(</tspan><tspan x="5.236" y="0" fill="#0000FF" font-family="'ArialMT'" font-size="17">PCINT5</tspan><tspan x="63.141" y="0" font-family="'ArialMT'" font-size="17"> </tspan><tspan x="67.439" y="0" fill="#808080" font-family="'ArialMT'" font-size="17">/</tspan><tspan x="71.737" y="0" font-family="'ArialMT'" font-size="17"> RESET </tspan><tspan x="134.886" y="0" fill="#808080" font-family="'ArialMT'" font-size="17">/</tspan><tspan x="139.184" y="0" font-family="'ArialMT'" font-size="17"> </tspan><tspan x="143.482" y="0" fill="#ED1C24" font-family="'ArialMT'" font-size="17">ADC0</tspan><tspan x="187.129" y="0" font-family="'ArialMT'" font-size="17"> </tspan><tspan x="191.428" y="0" fill="#808080" font-family="'ArialMT'" font-size="17">/</tspan><tspan x="195.726" y="0" font-family="'ArialMT'" font-size="17"> dW</tspan><tspan x="224.674" y="0" fill="#808080" font-family="'ArialMT'" font-size="17">)</tspan><tspan x="229.91" y="0" font-family="'ArialMT'" font-size="17"> </tspan><tspan x="234.208" y="0" font-family="'Arial-BoldMT'" font-size="17">PB5</tspan><tspan x="56.003" y="33" fill="#808080" font-family="'ArialMT'" font-size="17">(</tspan><tspan x="61.24" y="33" fill="#0000FF" font-family="'ArialMT'" font-size="17">PCINT3</tspan><tspan x="119.144" y="33" font-family="'ArialMT'" font-size="17"> </tspan><tspan x="123.442" y="33" fill="#808080" font-family="'ArialMT'" font-size="17">/</tspan><tspan x="127.74" y="33" font-family="'ArialMT'" font-size="17"> CLKI </tspan><tspan x="172.43" y="33" fill="#808080" font-family="'ArialMT'" font-size="17">/</tspan><tspan x="176.729" y="33" font-family="'ArialMT'" font-size="17"> </tspan><tspan x="181.026" y="33" fill="#ED1C24" font-family="'ArialMT'" font-size="17">ADC3</tspan><tspan x="224.674" y="33" fill="#808080" font-family="'ArialMT'" font-size="17">)</tspan><tspan x="229.91" y="33" font-family="'ArialMT'" font-size="17"> </tspan><tspan x="234.208" y="33" font-family="'Arial-BoldMT'" font-size="17">PB3</tspan><tspan x="104.991" y="66" fill="#808080" font-family="'ArialMT'" font-size="17">(</tspan><tspan x="110.228" y="66" fill="#0000FF" font-family="'ArialMT'" font-size="17">PCINT4</tspan><tspan x="168.132" y="66" font-family="'ArialMT'" font-size="17"> </tspan><tspan x="172.43" y="66" fill="#808080" font-family="'ArialMT'" font-size="17">/</tspan><tspan x="176.728" y="66" font-family="'ArialMT'" font-size="17"> </tspan><tspan x="181.026" y="66" fill="#ED1C24" font-family="'ArialMT'" font-size="17">ADC2</tspan><tspan x="224.673" y="66" fill="#808080" font-family="'ArialMT'" font-size="17">)</tspan><tspan x="229.91" y="66" font-family="'ArialMT'" font-size="17"> </tspan><tspan x="234.208" y="66" font-family="'Arial-BoldMT'" font-size="17">PB4</tspan><tspan x="229.501" y="99" font-family="'ArialMT'" font-size="17">GND</tspan></text>
<rect x="474" y="230.64" fill="none" width="367.087" height="134.001"/>
<text transform="matrix(1 0 0 1 483.9219 252.7329)"><tspan x="0" y="0" fill="#FF0000" font-family="'ArialMT'" font-size="17">VCC</tspan><tspan x="0" y="33" font-family="'Arial-BoldMT'" font-size="17">PB2</tspan><tspan x="31.795" y="33" font-family="'ArialMT'" font-size="17"> </tspan><tspan x="36.094" y="33" fill="#808080" font-family="'ArialMT'" font-size="17">(</tspan><tspan x="41.329" y="33" font-family="'ArialMT'" font-size="17">SCK </tspan><tspan x="79.307" y="33" fill="#808080" font-family="'ArialMT'" font-size="17">/</tspan><tspan x="83.605" y="33" font-family="'ArialMT'" font-size="17"> </tspan><tspan x="87.903" y="33" fill="#ED1C24" font-family="'ArialMT'" font-size="17">ADC1</tspan><tspan x="131.551" y="33" font-family="'ArialMT'" font-size="17"> </tspan><tspan x="135.849" y="33" fill="#808080" font-family="'ArialMT'" font-size="17">/</tspan><tspan x="140.146" y="33" font-family="'ArialMT'" font-size="17"> </tspan><tspan x="144.445" y="33" fill="#42210B" font-family="'ArialMT'" font-size="17">T0</tspan><tspan x="163.434" y="33" font-family="'ArialMT'" font-size="17"> </tspan><tspan x="167.732" y="33" fill="#808080" font-family="'ArialMT'" font-size="17">/</tspan><tspan x="172.029" y="33" font-family="'ArialMT'" font-size="17"> </tspan><tspan x="176.328" y="33" fill="#0000FF" font-family="'ArialMT'" font-size="17">PCINT2</tspan><tspan x="234.232" y="33" fill="#808080" font-family="'ArialMT'" font-size="17">)</tspan><tspan x="0" y="66" font-family="'Arial-BoldMT'" font-size="17">PB1</tspan><tspan x="31.795" y="66" font-family="'ArialMT'" font-size="17"> </tspan><tspan x="36.094" y="66" fill="#808080" font-family="'ArialMT'" font-size="17">(</tspan><tspan x="41.329" y="66" font-family="'ArialMT'" font-size="17">MISO </tspan><tspan x="87.373" y="66" fill="#808080" font-family="'ArialMT'" font-size="17">/</tspan><tspan x="91.672" y="66" font-family="'ArialMT'" font-size="17"> </tspan><tspan x="95.97" y="66" fill="#39B54A" font-family="'ArialMT'" font-size="17">AIN1</tspan><tspan x="132.063" y="66" font-family="'ArialMT'" font-size="17"> </tspan><tspan x="136.361" y="66" fill="#808080" font-family="'ArialMT'" font-size="17">/</tspan><tspan x="140.66" y="66" font-family="'ArialMT'" font-size="17"> </tspan><tspan x="144.958" y="66" fill="#FF00FF" font-family="'ArialMT'" font-size="17">OC0B</tspan><tspan x="189.551" y="66" font-family="'ArialMT'" font-size="17"> </tspan><tspan x="193.85" y="66" fill="#808080" font-family="'ArialMT'" font-size="17">/</tspan><tspan x="198.147" y="66" font-family="'ArialMT'" font-size="17"> </tspan><tspan x="202.445" y="66" fill="#29ABE2" font-family="'ArialMT'" font-size="17">INT0</tspan><tspan x="237.584" y="66" font-family="'ArialMT'" font-size="17"> </tspan><tspan x="241.883" y="66" fill="#808080" font-family="'ArialMT'" font-size="17">/</tspan><tspan x="246.181" y="66" font-family="'ArialMT'" font-size="17"> </tspan><tspan x="250.479" y="66" fill="#0000FF" font-family="'ArialMT'" font-size="17">PCINT1</tspan><tspan x="308.384" y="66" fill="#808080" font-family="'ArialMT'" font-size="17">)</tspan><tspan x="0" y="99" font-family="'Arial-BoldMT'" font-size="17">PB0</tspan><tspan x="31.795" y="99" font-family="'ArialMT'" font-size="17"> </tspan><tspan x="36.094" y="99" fill="#808080" font-family="'ArialMT'" font-size="17">(</tspan><tspan x="41.329" y="99" font-family="'ArialMT'" font-size="17">MOSI </tspan><tspan x="87.373" y="99" fill="#808080" font-family="'ArialMT'" font-size="17">/</tspan><tspan x="91.672" y="99" font-family="'ArialMT'" font-size="17"> </tspan><tspan x="95.97" y="99" fill="#39B54A" font-family="'ArialMT'" font-size="17">AIN0</tspan><tspan x="132.063" y="99" font-family="'ArialMT'" font-size="17"> </tspan><tspan x="136.361" y="99" fill="#808080" font-family="'ArialMT'" font-size="17">/</tspan><tspan x="140.66" y="99" font-family="'ArialMT'" font-size="17"> </tspan><tspan x="144.958" y="99" fill="#FF00FF" font-family="'ArialMT'" font-size="17">OC0A</tspan><tspan x="189.551" y="99" font-family="'ArialMT'" font-size="17"> </tspan><tspan x="193.85" y="99" fill="#808080" font-family="'ArialMT'" font-size="17">/</tspan><tspan x="198.147" y="99" font-family="'ArialMT'" font-size="17"> </tspan><tspan x="202.445" y="99" fill="#0000FF" font-family="'ArialMT'" font-size="17">PCINT0</tspan><tspan x="260.35" y="99" fill="#808080" font-family="'ArialMT'" font-size="17">)</tspan></text>
<rect x="76.941" y="80" fill="none" width="764.146" height="150.64"/>
<text transform="matrix(1 0 0 1 76.9409 95.752)"><tspan x="0" y="0" font-family="'Arial-BoldMT'" font-size="22">ATTINY13</tspan><tspan x="103.909" y="0" font-family="'ArialMT'" font-size="20"> </tspan><tspan x="0" y="26.8" font-family="'ArialMT'" font-size="14">PIN CONFIGURATIONS </tspan><tspan x="0" y="41.2" fill="#0000FF" font-family="'ArialMT'" font-size="12">https://github.com/ardubit</tspan></text>
<g>
	<g>
		
			<rect x="376" y="230.903" fill="#999999" stroke="#666666" stroke-width="4" stroke-miterlimit="10" width="87" height="132.999"/>
		<circle fill="#CCCCCC" stroke="#666666" stroke-width="2" stroke-miterlimit="10" cx="389.333" cy="248.069" r="5.153"/>
	</g>
	<g>
		<g>
			
				<rect x="365" y="239.736" fill="#CCCCCC" stroke="#666666" stroke-width="2" stroke-miterlimit="10" width="11" height="16.666"/>
			
				<rect x="365" y="338.403" fill="#CCCCCC" stroke="#666666" stroke-width="2" stroke-miterlimit="10" width="11" height="16.667"/>
			
				<rect x="365" y="303.516" fill="#CCCCCC" stroke="#666666" stroke-width="2" stroke-miterlimit="10" width="11" height="22.667"/>
			
				<rect x="365" y="268.624" fill="#CCCCCC" stroke="#666666" stroke-width="2" stroke-miterlimit="10" width="11" height="22.667"/>
		</g>
		<g>
			
				<rect x="463" y="239.736" fill="#CCCCCC" stroke="#666666" stroke-width="2" stroke-miterlimit="10" width="11" height="16.666"/>
			
				<rect x="463" y="338.403" fill="#CCCCCC" stroke="#666666" stroke-width="2" stroke-miterlimit="10" width="11" height="16.667"/>
			
				<rect x="463" y="303.516" fill="#CCCCCC" stroke="#666666" stroke-width="2" stroke-miterlimit="10" width="11" height="22.667"/>
			
				<rect x="463" y="268.624" fill="#CCCCCC" stroke="#666666" stroke-width="2" stroke-miterlimit="10" width="11" height="22.667"/>
		</g>
	</g>
</g>
</svg>
